<svg width="222" height="222" viewBox="0 0 222 222" fill="none" xmlns="http://www.w3.org/2000/svg">
<circle cx="111" cy="111" r="111" fill="#1C242F"/>
<path d="M91.0814 142.912L91.1294 139.12L91.1774 132.064C91.2094 131.04 91.2254 129.984 91.2254 128.896C91.2254 127.808 91.2254 126.688 91.2254 125.536C91.2254 124.384 91.2254 123.36 91.2254 122.464C91.2254 121.568 91.2574 120.56 91.3214 119.44V119.248C91.3534 118.928 91.3694 118.608 91.3694 118.288C91.4014 117.936 91.4174 117.584 91.4174 117.232C91.4494 116.656 91.6254 116.032 91.9454 115.36C92.1694 114.912 92.5054 114.528 92.9534 114.208C93.4654 113.952 93.9614 113.824 94.4414 113.824C94.6974 113.824 94.9214 113.84 95.1134 113.872C95.3374 113.872 95.5454 113.888 95.7374 113.92C96.1534 113.984 96.5214 114.176 96.8414 114.496C97.0334 114.656 97.2094 114.912 97.3694 115.264C97.4334 115.456 97.4814 115.648 97.5134 115.84C97.5774 116 97.6254 116.176 97.6574 116.368C97.6894 116.592 97.7054 116.8 97.7054 116.992C97.7374 117.184 97.7534 117.376 97.7534 117.568C97.7534 117.792 97.7374 118 97.7054 118.192C97.7054 118.352 97.7054 118.528 97.7054 118.72V119.536L97.4174 144.448V144.928C97.4174 145.024 97.4014 145.152 97.3694 145.312C97.3694 145.44 97.3534 145.6 97.3214 145.792C97.2574 145.952 97.1934 146.128 97.1294 146.32C97.0974 146.48 97.0494 146.656 96.9854 146.848C96.8894 147.008 96.7774 147.168 96.6494 147.328C96.5534 147.456 96.4254 147.584 96.2654 147.712C96.0094 147.968 95.5934 148.144 95.0174 148.24C94.1534 148.432 93.3374 148.352 92.5694 148C92.1854 147.744 91.9134 147.424 91.7534 147.04C91.6574 146.944 91.6094 146.848 91.6094 146.752C91.5774 146.688 91.5454 146.64 91.5134 146.608C91.4814 146.576 91.4494 146.528 91.4174 146.464C91.3534 146.304 91.3054 146.144 91.2734 145.984C91.2414 145.792 91.2254 145.6 91.2254 145.408C91.1934 145.248 91.1614 145.088 91.1294 144.928C91.1294 144.768 91.1134 144.608 91.0814 144.448C91.0494 144.192 91.0494 143.92 91.0814 143.632V142.912ZM138.759 144.352C138.727 144.896 138.647 145.472 138.519 146.08C138.423 146.688 138.119 147.184 137.607 147.568C137.223 147.888 136.791 148.08 136.311 148.144C135.831 148.208 135.351 148.176 134.871 148.048C134.423 147.952 133.991 147.792 133.575 147.568C133.159 147.312 132.823 147.008 132.567 146.656C131.479 145.312 130.471 143.936 129.543 142.528C128.647 141.088 127.735 139.648 126.807 138.208L122.775 132.112C122.231 131.248 121.655 130.288 121.047 129.232C120.439 128.144 119.815 127.136 119.175 126.208L119.031 144.544V144.976C119.031 145.488 118.935 146 118.743 146.512C118.583 146.992 118.295 147.408 117.879 147.76C117.559 148.016 117.143 148.192 116.631 148.288C115.831 148.448 115.159 148.4 114.615 148.144C114.103 147.888 113.687 147.536 113.367 147.088C113.079 146.64 112.871 146.128 112.743 145.552C112.647 144.944 112.631 144.352 112.695 143.776V142.96L112.791 139.216L112.839 132.256C112.871 131.232 112.887 130.192 112.887 129.136C112.887 128.048 112.887 126.944 112.887 125.824C112.855 124.448 112.855 122.992 112.887 121.456C112.951 119.92 113.015 118.48 113.079 117.136C113.143 116.4 113.319 115.776 113.607 115.264C113.735 114.816 114.071 114.432 114.615 114.112C114.967 113.888 115.415 113.744 115.959 113.68C116.535 113.616 117.031 113.632 117.447 113.728C117.607 113.792 117.767 113.872 117.927 113.968C118.087 114.032 118.247 114.112 118.407 114.208C118.567 114.336 118.711 114.464 118.839 114.592C118.999 114.72 119.143 114.864 119.271 115.024C119.431 115.184 119.575 115.36 119.703 115.552C119.831 115.712 119.959 115.872 120.087 116.032C120.183 116.224 120.279 116.4 120.375 116.56C120.471 116.72 120.583 116.88 120.711 117.04L121.239 117.808L132.327 135.28V132.112C132.327 131.088 132.311 130.048 132.279 128.992C132.279 127.904 132.263 126.784 132.231 125.632C132.231 124.288 132.231 122.848 132.231 121.312C132.263 119.776 132.311 118.336 132.375 116.992C132.375 116.448 132.535 115.824 132.855 115.12C133.015 114.704 133.287 114.368 133.671 114.112C134.055 113.856 134.487 113.68 134.967 113.584C135.447 113.488 135.927 113.488 136.407 113.584C136.887 113.68 137.303 113.872 137.655 114.16C137.751 114.256 137.847 114.368 137.943 114.496C138.039 114.624 138.119 114.768 138.183 114.928C138.343 115.344 138.439 115.712 138.471 116.032C138.567 116.48 138.615 116.88 138.615 117.232C138.615 121.232 138.615 125.312 138.615 129.472C138.647 133.632 138.679 137.712 138.711 141.712C138.711 142.16 138.727 142.608 138.759 143.056C138.791 143.472 138.791 143.904 138.759 144.352ZM178.359 144.352C178.327 144.896 178.247 145.472 178.119 146.08C178.023 146.688 177.719 147.184 177.207 147.568C176.823 147.888 176.391 148.08 175.911 148.144C175.431 148.208 174.951 148.176 174.471 148.048C174.023 147.952 173.591 147.792 173.175 147.568C172.759 147.312 172.423 147.008 172.167 146.656C171.079 145.312 170.071 143.936 169.143 142.528C168.247 141.088 167.335 139.648 166.407 138.208L162.375 132.112C161.831 131.248 161.255 130.288 160.647 129.232C160.039 128.144 159.415 127.136 158.775 126.208L158.631 144.544V144.976C158.631 145.488 158.535 146 158.343 146.512C158.183 146.992 157.895 147.408 157.479 147.76C157.159 148.016 156.743 148.192 156.231 148.288C155.431 148.448 154.759 148.4 154.215 148.144C153.703 147.888 153.287 147.536 152.967 147.088C152.679 146.64 152.471 146.128 152.343 145.552C152.247 144.944 152.231 144.352 152.295 143.776V142.96L152.391 139.216L152.439 132.256C152.471 131.232 152.487 130.192 152.487 129.136C152.487 128.048 152.487 126.944 152.487 125.824C152.455 124.448 152.455 122.992 152.487 121.456C152.551 119.92 152.615 118.48 152.679 117.136C152.743 116.4 152.919 115.776 153.207 115.264C153.335 114.816 153.671 114.432 154.215 114.112C154.567 113.888 155.015 113.744 155.559 113.68C156.135 113.616 156.631 113.632 157.047 113.728C157.207 113.792 157.367 113.872 157.527 113.968C157.687 114.032 157.847 114.112 158.007 114.208C158.167 114.336 158.311 114.464 158.439 114.592C158.599 114.72 158.743 114.864 158.871 115.024C159.031 115.184 159.175 115.36 159.303 115.552C159.431 115.712 159.559 115.872 159.687 116.032C159.783 116.224 159.879 116.4 159.975 116.56C160.071 116.72 160.183 116.88 160.311 117.04L160.839 117.808L171.927 135.28V132.112C171.927 131.088 171.911 130.048 171.879 128.992C171.879 127.904 171.863 126.784 171.831 125.632C171.831 124.288 171.831 122.848 171.831 121.312C171.863 119.776 171.911 118.336 171.975 116.992C171.975 116.448 172.135 115.824 172.455 115.12C172.615 114.704 172.887 114.368 173.271 114.112C173.655 113.856 174.087 113.68 174.567 113.584C175.047 113.488 175.527 113.488 176.007 113.584C176.487 113.68 176.903 113.872 177.255 114.16C177.351 114.256 177.447 114.368 177.543 114.496C177.639 114.624 177.719 114.768 177.783 114.928C177.943 115.344 178.039 115.712 178.071 116.032C178.167 116.48 178.215 116.88 178.215 117.232C178.215 121.232 178.215 125.312 178.215 129.472C178.247 133.632 178.279 137.712 178.311 141.712C178.311 142.16 178.327 142.608 178.359 143.056C178.391 143.472 178.391 143.904 178.359 144.352Z" fill="#E3BC3F"/>
<path d="M57.82 65.696C57.82 63.3067 58.6733 61.3013 60.38 59.68C62.172 58.0587 64.22 57.248 66.524 57.248C68.9987 57.248 71.0467 58.0587 72.668 59.68C74.3747 61.3013 75.228 63.3067 75.228 65.696C75.228 68 74.3747 70.0053 72.668 71.712C71.0467 73.3333 68.9987 74.144 66.524 74.144C64.22 74.144 62.172 73.3333 60.38 71.712C58.6733 70.0053 57.82 68 57.82 65.696ZM59.74 89.12H73.308V148H59.74V89.12Z" fill="#D9D9D9"/>
</svg>
