<svg width="207" height="186" viewBox="0 0 207 186" fill="none" xmlns="http://www.w3.org/2000/svg">
<path d="M79.1466 178.188L79.1716 176.213L79.1966 172.538C79.2132 172.004 79.2216 171.454 79.2216 170.888C79.2216 170.321 79.2216 169.738 79.2216 169.138C79.2216 168.538 79.2216 168.004 79.2216 167.538C79.2216 167.071 79.2382 166.546 79.2716 165.963V165.863C79.2882 165.696 79.2966 165.529 79.2966 165.363C79.3132 165.179 79.3216 164.996 79.3216 164.813C79.3382 164.513 79.4299 164.188 79.5966 163.838C79.7132 163.604 79.8882 163.404 80.1216 163.238C80.3882 163.104 80.6466 163.038 80.8966 163.038C81.0299 163.038 81.1466 163.046 81.2466 163.063C81.3632 163.063 81.4716 163.071 81.5716 163.088C81.7882 163.121 81.9799 163.221 82.1466 163.388C82.2466 163.471 82.3382 163.604 82.4216 163.788C82.4549 163.888 82.4799 163.988 82.4966 164.088C82.5299 164.171 82.5549 164.263 82.5716 164.363C82.5882 164.479 82.5966 164.588 82.5966 164.688C82.6132 164.788 82.6216 164.888 82.6216 164.988C82.6216 165.104 82.6132 165.213 82.5966 165.313C82.5966 165.396 82.5966 165.488 82.5966 165.588V166.013L82.4466 178.988V179.238C82.4466 179.288 82.4382 179.354 82.4216 179.438C82.4216 179.504 82.4132 179.588 82.3966 179.688C82.3632 179.771 82.3299 179.863 82.2966 179.963C82.2799 180.046 82.2549 180.138 82.2216 180.238C82.1716 180.321 82.1132 180.404 82.0466 180.488C81.9966 180.554 81.9299 180.621 81.8466 180.688C81.7132 180.821 81.4966 180.913 81.1966 180.963C80.7466 181.063 80.3216 181.021 79.9216 180.838C79.7216 180.704 79.5799 180.538 79.4966 180.338C79.4466 180.288 79.4216 180.238 79.4216 180.188C79.4049 180.154 79.3882 180.129 79.3716 180.113C79.3549 180.096 79.3382 180.071 79.3216 180.038C79.2882 179.954 79.2632 179.871 79.2466 179.788C79.2299 179.688 79.2216 179.588 79.2216 179.488C79.2049 179.404 79.1882 179.321 79.1716 179.238C79.1716 179.154 79.1632 179.071 79.1466 178.988C79.1299 178.854 79.1299 178.713 79.1466 178.563V178.188ZM103.978 178.938C103.962 179.221 103.92 179.521 103.853 179.838C103.803 180.154 103.645 180.413 103.378 180.613C103.178 180.779 102.953 180.879 102.703 180.913C102.453 180.946 102.203 180.929 101.953 180.863C101.72 180.813 101.495 180.729 101.278 180.613C101.062 180.479 100.887 180.321 100.753 180.138C100.187 179.438 99.6618 178.721 99.1784 177.988C98.7118 177.238 98.2368 176.488 97.7534 175.738L95.6534 172.563C95.3701 172.113 95.0701 171.613 94.7534 171.063C94.4368 170.496 94.1118 169.971 93.7784 169.488L93.7034 179.038V179.263C93.7034 179.529 93.6534 179.796 93.5534 180.063C93.4701 180.313 93.3201 180.529 93.1034 180.713C92.9368 180.846 92.7201 180.938 92.4534 180.988C92.0368 181.071 91.6868 181.046 91.4034 180.913C91.1368 180.779 90.9201 180.596 90.7534 180.363C90.6034 180.129 90.4951 179.863 90.4284 179.563C90.3784 179.246 90.3701 178.938 90.4034 178.638V178.213L90.4534 176.263L90.4784 172.638C90.4951 172.104 90.5034 171.563 90.5034 171.013C90.5034 170.446 90.5034 169.871 90.5034 169.288C90.4868 168.571 90.4868 167.813 90.5034 167.013C90.5368 166.213 90.5701 165.463 90.6034 164.763C90.6368 164.379 90.7284 164.054 90.8784 163.788C90.9451 163.554 91.1201 163.354 91.4034 163.188C91.5868 163.071 91.8201 162.996 92.1034 162.963C92.4034 162.929 92.6618 162.938 92.8784 162.988C92.9618 163.021 93.0451 163.063 93.1284 163.113C93.2118 163.146 93.2951 163.188 93.3784 163.238C93.4618 163.304 93.5368 163.371 93.6034 163.438C93.6868 163.504 93.7618 163.579 93.8284 163.663C93.9118 163.746 93.9868 163.838 94.0534 163.938C94.1201 164.021 94.1868 164.104 94.2534 164.188C94.3034 164.288 94.3534 164.379 94.4034 164.463C94.4534 164.546 94.5118 164.629 94.5784 164.713L94.8534 165.113L100.628 174.213V172.563C100.628 172.029 100.62 171.488 100.603 170.938C100.603 170.371 100.595 169.788 100.578 169.188C100.578 168.488 100.578 167.738 100.578 166.938C100.595 166.138 100.62 165.388 100.653 164.688C100.653 164.404 100.737 164.079 100.903 163.713C100.987 163.496 101.128 163.321 101.328 163.188C101.528 163.054 101.753 162.963 102.003 162.913C102.253 162.863 102.503 162.863 102.753 162.913C103.003 162.963 103.22 163.063 103.403 163.213C103.453 163.263 103.503 163.321 103.553 163.388C103.603 163.454 103.645 163.529 103.678 163.613C103.762 163.829 103.812 164.021 103.828 164.188C103.878 164.421 103.903 164.629 103.903 164.813C103.903 166.896 103.903 169.021 103.903 171.188C103.92 173.354 103.937 175.479 103.953 177.563C103.953 177.796 103.962 178.029 103.978 178.263C103.995 178.479 103.995 178.704 103.978 178.938ZM124.603 178.938C124.587 179.221 124.545 179.521 124.478 179.838C124.428 180.154 124.27 180.413 124.003 180.613C123.803 180.779 123.578 180.879 123.328 180.913C123.078 180.946 122.828 180.929 122.578 180.863C122.345 180.813 122.12 180.729 121.903 180.613C121.687 180.479 121.512 180.321 121.378 180.138C120.812 179.438 120.287 178.721 119.803 177.988C119.337 177.238 118.862 176.488 118.378 175.738L116.278 172.563C115.995 172.113 115.695 171.613 115.378 171.063C115.062 170.496 114.737 169.971 114.403 169.488L114.328 179.038V179.263C114.328 179.529 114.278 179.796 114.178 180.063C114.095 180.313 113.945 180.529 113.728 180.713C113.562 180.846 113.345 180.938 113.078 180.988C112.662 181.071 112.312 181.046 112.028 180.913C111.762 180.779 111.545 180.596 111.378 180.363C111.228 180.129 111.12 179.863 111.053 179.563C111.003 179.246 110.995 178.938 111.028 178.638V178.213L111.078 176.263L111.103 172.638C111.12 172.104 111.128 171.563 111.128 171.013C111.128 170.446 111.128 169.871 111.128 169.288C111.112 168.571 111.112 167.813 111.128 167.013C111.162 166.213 111.195 165.463 111.228 164.763C111.262 164.379 111.353 164.054 111.503 163.788C111.57 163.554 111.745 163.354 112.028 163.188C112.212 163.071 112.445 162.996 112.728 162.963C113.028 162.929 113.287 162.938 113.503 162.988C113.587 163.021 113.67 163.063 113.753 163.113C113.837 163.146 113.92 163.188 114.003 163.238C114.087 163.304 114.162 163.371 114.228 163.438C114.312 163.504 114.387 163.579 114.453 163.663C114.537 163.746 114.612 163.838 114.678 163.938C114.745 164.021 114.812 164.104 114.878 164.188C114.928 164.288 114.978 164.379 115.028 164.463C115.078 164.546 115.137 164.629 115.203 164.713L115.478 165.113L121.253 174.213V172.563C121.253 172.029 121.245 171.488 121.228 170.938C121.228 170.371 121.22 169.788 121.203 169.188C121.203 168.488 121.203 167.738 121.203 166.938C121.22 166.138 121.245 165.388 121.278 164.688C121.278 164.404 121.362 164.079 121.528 163.713C121.612 163.496 121.753 163.321 121.953 163.188C122.153 163.054 122.378 162.963 122.628 162.913C122.878 162.863 123.128 162.863 123.378 162.913C123.628 162.963 123.845 163.063 124.028 163.213C124.078 163.263 124.128 163.321 124.178 163.388C124.228 163.454 124.27 163.529 124.303 163.613C124.387 163.829 124.437 164.021 124.453 164.188C124.503 164.421 124.528 164.629 124.528 164.813C124.528 166.896 124.528 169.021 124.528 171.188C124.545 173.354 124.562 175.479 124.578 177.563C124.578 177.796 124.587 178.029 124.603 178.263C124.62 178.479 124.62 178.704 124.603 178.938Z" fill="#E3BC3F"/>
<g filter="url(#filter0_f_88_159)">
<path d="M5.55455 90.5452C5.55455 89.0332 6.09455 87.7642 7.17455 86.7382C8.30855 85.7122 9.60455 85.1992 11.0626 85.1992C12.6286 85.1992 13.9246 85.7122 14.9506 86.7382C16.0306 87.7642 16.5706 89.0332 16.5706 90.5452C16.5706 92.0032 16.0306 93.2722 14.9506 94.3522C13.9246 95.3782 12.6286 95.8912 11.0626 95.8912C9.60455 95.8912 8.30855 95.3782 7.17455 94.3522C6.09455 93.2722 5.55455 92.0032 5.55455 90.5452ZM6.76955 105.368H15.3556V142.628H6.76955V105.368ZM24.5592 123.998C24.5592 120.164 25.4232 116.789 27.1512 113.873C28.9332 110.957 31.3362 108.689 34.3602 107.069C37.3842 105.395 40.8132 104.558 44.6472 104.558C48.4812 104.558 51.8832 105.395 54.8532 107.069C57.8772 108.689 60.2802 110.957 62.0622 113.873C63.8442 116.789 64.7352 120.164 64.7352 123.998C64.7352 127.778 63.8442 131.153 62.0622 134.123C60.2802 137.039 57.8772 139.334 54.8532 141.008C51.8832 142.628 48.4812 143.438 44.6472 143.438C40.8132 143.438 37.3842 142.628 34.3602 141.008C31.3362 139.334 28.9332 137.039 27.1512 134.123C25.4232 131.153 24.5592 127.778 24.5592 123.998ZM33.5502 123.998C33.5502 126.32 34.0362 128.372 35.0082 130.154C35.9802 131.882 37.3032 133.259 38.9772 134.285C40.6512 135.257 42.5412 135.743 44.6472 135.743C46.6992 135.743 48.5622 135.257 50.2362 134.285C51.9642 133.259 53.3142 131.882 54.2862 130.154C55.2582 128.372 55.7442 126.32 55.7442 123.998C55.7442 121.676 55.2582 119.624 54.2862 117.842C53.3142 116.06 51.9642 114.683 50.2362 113.711C48.5622 112.739 46.6992 112.253 44.6472 112.253C42.5412 112.253 40.6512 112.739 38.9772 113.711C37.3032 114.683 35.9802 116.06 35.0082 117.842C34.0362 119.624 33.5502 121.676 33.5502 123.998ZM126.334 118.976V142.628H117.586V119.948C117.586 117.14 117.073 115.061 116.047 113.711C115.075 112.307 113.509 111.605 111.349 111.605C109.891 111.605 108.595 111.929 107.461 112.577C106.381 113.225 105.517 114.17 104.869 115.412C104.275 116.654 103.978 118.166 103.978 119.948V142.628H95.2298V119.948C95.2298 117.14 94.7168 115.061 93.6908 113.711C92.7188 112.307 91.1528 111.605 88.9928 111.605C87.4808 111.605 86.1578 111.929 85.0238 112.577C83.9438 113.225 83.1068 114.17 82.5128 115.412C81.9188 116.654 81.6218 118.166 81.6218 119.948V142.628H73.0358V105.368H81.6218V110.795C82.7018 108.743 84.1058 107.204 85.8338 106.178C87.6158 105.098 89.6948 104.558 92.0708 104.558C94.8248 104.558 97.0928 105.125 98.8748 106.259C100.711 107.393 102.034 109.04 102.844 111.2C104.14 109.04 105.76 107.393 107.704 106.259C109.702 105.125 111.97 104.558 114.508 104.558C117.154 104.558 119.341 105.125 121.069 106.259C122.851 107.339 124.174 108.959 125.038 111.119C125.902 113.279 126.334 115.898 126.334 118.976ZM143.012 131.045C143.012 132.287 143.309 133.367 143.903 134.285C144.497 135.149 145.307 135.797 146.333 136.229C147.413 136.661 148.628 136.877 149.978 136.877C151.706 136.877 153.272 136.526 154.676 135.824C156.134 135.122 157.295 134.096 158.159 132.746C159.077 131.342 159.536 129.722 159.536 127.886L160.832 132.746C160.832 135.122 160.13 137.12 158.726 138.74C157.376 140.306 155.648 141.494 153.542 142.304C151.49 143.06 149.384 143.438 147.224 143.438C144.902 143.438 142.742 142.979 140.744 142.061C138.746 141.143 137.153 139.793 135.965 138.011C134.777 136.229 134.183 134.069 134.183 131.531C134.183 127.913 135.452 125.051 137.99 122.945C140.528 120.785 144.119 119.705 148.763 119.705C151.247 119.705 153.38 119.975 155.162 120.515C156.998 121.055 158.51 121.703 159.698 122.459C160.886 123.161 161.723 123.809 162.209 124.403V128.858C160.535 127.67 158.753 126.806 156.863 126.266C154.973 125.726 152.975 125.456 150.869 125.456C149.033 125.456 147.548 125.699 146.414 126.185C145.28 126.617 144.416 127.238 143.822 128.048C143.282 128.858 143.012 129.857 143.012 131.045ZM140.258 115.088L136.694 108.932C138.368 107.906 140.528 106.907 143.174 105.935C145.874 104.963 148.952 104.477 152.408 104.477C155.486 104.477 158.186 104.936 160.508 105.854C162.884 106.772 164.747 108.095 166.097 109.823C167.447 111.497 168.122 113.576 168.122 116.06V142.628H159.536V117.761C159.536 116.573 159.32 115.601 158.888 114.845C158.51 114.089 157.97 113.468 157.268 112.982C156.566 112.496 155.729 112.145 154.757 111.929C153.785 111.713 152.732 111.605 151.598 111.605C149.87 111.605 148.223 111.821 146.657 112.253C145.145 112.631 143.822 113.117 142.688 113.711C141.608 114.251 140.798 114.71 140.258 115.088ZM186.987 105.368V142.628H178.32V105.368H186.987ZM198.084 114.683C197.274 114.035 196.518 113.549 195.816 113.225C195.114 112.901 194.223 112.739 193.143 112.739C191.685 112.739 190.497 113.117 189.579 113.873C188.661 114.629 187.986 115.682 187.554 117.032C187.176 118.328 186.987 119.867 186.987 121.649L184.071 119.948C184.071 116.978 184.611 114.359 185.691 112.091C186.825 109.769 188.256 107.933 189.984 106.583C191.766 105.233 193.602 104.558 195.492 104.558C196.842 104.558 198.111 104.774 199.299 105.206C200.487 105.584 201.486 106.286 202.296 107.312L198.084 114.683Z" fill="black"/>
</g>
<path d="M9.23906 86.7951C9.23906 85.3018 9.7724 84.0484 10.8391 83.0351C11.9591 82.0218 13.2391 81.5151 14.6791 81.5151C16.2257 81.5151 17.5057 82.0218 18.5191 83.0351C19.5857 84.0484 20.1191 85.3018 20.1191 86.7951C20.1191 88.2351 19.5857 89.4884 18.5191 90.5551C17.5057 91.5684 16.2257 92.0751 14.6791 92.0751C13.2391 92.0751 11.9591 91.5684 10.8391 90.5551C9.7724 89.4884 9.23906 88.2351 9.23906 86.7951ZM10.4391 101.435H18.9191V138.235H10.4391V101.435ZM28.0091 119.835C28.0091 116.048 28.8624 112.715 30.5691 109.835C32.3291 106.955 34.7024 104.715 37.6891 103.115C40.6757 101.462 44.0624 100.635 47.8491 100.635C51.6357 100.635 54.9957 101.462 57.9291 103.115C60.9157 104.715 63.2891 106.955 65.0491 109.835C66.8091 112.715 67.6891 116.048 67.6891 119.835C67.6891 123.568 66.8091 126.902 65.0491 129.835C63.2891 132.715 60.9157 134.982 57.9291 136.635C54.9957 138.235 51.6357 139.035 47.8491 139.035C44.0624 139.035 40.6757 138.235 37.6891 136.635C34.7024 134.982 32.3291 132.715 30.5691 129.835C28.8624 126.902 28.0091 123.568 28.0091 119.835ZM36.8891 119.835C36.8891 122.128 37.3691 124.155 38.3291 125.915C39.2891 127.622 40.5957 128.982 42.2491 129.995C43.9024 130.955 45.7691 131.435 47.8491 131.435C49.8757 131.435 51.7157 130.955 53.3691 129.995C55.0757 128.982 56.4091 127.622 57.3691 125.915C58.3291 124.155 58.8091 122.128 58.8091 119.835C58.8091 117.542 58.3291 115.515 57.3691 113.755C56.4091 111.995 55.0757 110.635 53.3691 109.675C51.7157 108.715 49.8757 108.235 47.8491 108.235C45.7691 108.235 43.9024 108.715 42.2491 109.675C40.5957 110.635 39.2891 111.995 38.3291 113.755C37.3691 115.515 36.8891 117.542 36.8891 119.835ZM128.527 114.875V138.235H119.887V115.835C119.887 113.062 119.381 111.008 118.367 109.675C117.407 108.288 115.861 107.595 113.727 107.595C112.287 107.595 111.007 107.915 109.887 108.555C108.821 109.195 107.967 110.128 107.327 111.355C106.741 112.582 106.447 114.075 106.447 115.835V138.235H97.8072V115.835C97.8072 113.062 97.3005 111.008 96.2872 109.675C95.3272 108.288 93.7805 107.595 91.6472 107.595C90.1539 107.595 88.8472 107.915 87.7272 108.555C86.6605 109.195 85.8339 110.128 85.2472 111.355C84.6605 112.582 84.3672 114.075 84.3672 115.835V138.235H75.8872V101.435H84.3672V106.795C85.4339 104.768 86.8205 103.248 88.5272 102.235C90.2872 101.168 92.3405 100.635 94.6872 100.635C97.4072 100.635 99.6472 101.195 101.407 102.315C103.221 103.435 104.527 105.062 105.327 107.195C106.607 105.062 108.207 103.435 110.127 102.315C112.101 101.195 114.341 100.635 116.847 100.635C119.461 100.635 121.621 101.195 123.327 102.315C125.087 103.382 126.394 104.982 127.247 107.115C128.101 109.248 128.527 111.835 128.527 114.875ZM144.999 126.795C144.999 128.022 145.292 129.088 145.879 129.995C146.466 130.848 147.266 131.488 148.279 131.915C149.346 132.342 150.546 132.555 151.879 132.555C153.586 132.555 155.132 132.208 156.519 131.515C157.959 130.822 159.106 129.808 159.959 128.475C160.866 127.088 161.319 125.488 161.319 123.675L162.599 128.475C162.599 130.822 161.906 132.795 160.519 134.395C159.186 135.942 157.479 137.115 155.399 137.915C153.372 138.662 151.292 139.035 149.159 139.035C146.866 139.035 144.732 138.582 142.759 137.675C140.786 136.768 139.212 135.435 138.039 133.675C136.866 131.915 136.279 129.782 136.279 127.275C136.279 123.702 137.532 120.875 140.039 118.795C142.546 116.662 146.092 115.595 150.679 115.595C153.132 115.595 155.239 115.862 156.999 116.395C158.812 116.928 160.306 117.568 161.479 118.315C162.652 119.008 163.479 119.648 163.959 120.235V124.635C162.306 123.462 160.546 122.608 158.679 122.075C156.812 121.542 154.839 121.275 152.759 121.275C150.946 121.275 149.479 121.515 148.359 121.995C147.239 122.422 146.386 123.035 145.799 123.835C145.266 124.635 144.999 125.622 144.999 126.795ZM142.279 111.035L138.759 104.955C140.412 103.942 142.546 102.955 145.159 101.995C147.826 101.035 150.866 100.555 154.279 100.555C157.319 100.555 159.986 101.008 162.279 101.915C164.626 102.822 166.466 104.128 167.799 105.835C169.132 107.488 169.799 109.542 169.799 111.995V138.235H161.319V113.675C161.319 112.502 161.106 111.542 160.679 110.795C160.306 110.048 159.772 109.435 159.079 108.955C158.386 108.475 157.559 108.128 156.599 107.915C155.639 107.702 154.599 107.595 153.479 107.595C151.772 107.595 150.146 107.808 148.599 108.235C147.106 108.608 145.799 109.088 144.679 109.675C143.612 110.208 142.812 110.662 142.279 111.035ZM188.432 101.435V138.235H179.872V101.435H188.432ZM199.392 110.635C198.592 109.995 197.845 109.515 197.152 109.195C196.458 108.875 195.578 108.715 194.512 108.715C193.072 108.715 191.898 109.088 190.992 109.835C190.085 110.582 189.418 111.622 188.992 112.955C188.618 114.235 188.432 115.755 188.432 117.515L185.552 115.835C185.552 112.902 186.085 110.315 187.152 108.075C188.272 105.782 189.685 103.968 191.392 102.635C193.152 101.302 194.965 100.635 196.832 100.635C198.165 100.635 199.418 100.848 200.592 101.275C201.765 101.648 202.752 102.342 203.552 103.355L199.392 110.635Z" fill="#D9D9D9"/>
<g filter="url(#filter1_f_88_159)">
<path fill-rule="evenodd" clip-rule="evenodd" d="M203 57.7515C201.713 57.9073 200.401 57.9876 199.069 57.9876C181.78 57.9876 167.765 44.4503 167.765 27.7513C167.765 18.1181 172.429 9.53705 179.695 4C164.261 5.86756 152.321 18.5871 152.321 34.0002C152.321 50.6993 166.337 64.2366 183.626 64.2366C190.941 64.2366 197.671 61.8129 203 57.7515Z" fill="#E3BC3F"/>
</g>
<path fill-rule="evenodd" clip-rule="evenodd" d="M201.822 57.876C200.564 58.0288 199.283 58.1075 197.982 58.1075C181.095 58.1075 167.406 44.8306 167.406 28.4527C167.406 19.0047 171.961 10.5888 179.058 5.1582C163.984 6.98986 152.321 19.4648 152.321 34.5815C152.321 50.9594 166.011 64.2364 182.898 64.2364C190.043 64.2364 196.616 61.8593 201.822 57.876Z" fill="#D9D9D9"/>
<g filter="url(#filter2_f_88_159)">
<path d="M143.482 56.1277L145.467 62.1309H151.889L146.693 65.8411L148.678 71.8444L143.482 68.1342L138.287 71.8444L140.271 65.8411L135.076 62.1309H141.498L143.482 56.1277Z" fill="white" fill-opacity="0.75"/>
<path d="M143.482 56.1277L145.467 62.1309H151.889L146.693 65.8411L148.678 71.8444L143.482 68.1342L138.287 71.8444L140.271 65.8411L135.076 62.1309H141.498L143.482 56.1277Z" fill="white" fill-opacity="0.75"/>
</g>
<g filter="url(#filter3_f_88_159)">
<path d="M46.8393 64.2366L48.8238 70.2398H55.2459L50.0503 73.95L52.0349 79.9533L46.8393 76.2431L41.6437 79.9533L43.6282 73.95L38.4326 70.2398H44.8547L46.8393 64.2366Z" fill="white" fill-opacity="0.75"/>
<path d="M46.8393 64.2366L48.8238 70.2398H55.2459L50.0503 73.95L52.0349 79.9533L46.8393 76.2431L41.6437 79.9533L43.6282 73.95L38.4326 70.2398H44.8547L46.8393 64.2366Z" fill="white" fill-opacity="0.75"/>
</g>
<g filter="url(#filter4_f_88_159)">
<path d="M111.071 15.5839L113.188 21.9873H120.039L114.497 25.9449L116.613 32.3483L111.071 28.3908L105.529 32.3483L107.646 25.9449L102.104 21.9873H108.955L111.071 15.5839Z" fill="#E6A000"/>
</g>
<path d="M111.661 16.7423L113.645 22.7456H120.067L114.872 26.4558L116.856 32.459L111.661 28.7488L106.465 32.459L108.45 26.4558L103.254 22.7456H109.676L111.661 16.7423Z" fill="#E3BC3F"/>
<path d="M143.482 56.1277L145.467 62.1309H151.889L146.693 65.8411L148.678 71.8444L143.482 68.1342L138.287 71.8444L140.271 65.8411L135.076 62.1309H141.498L143.482 56.1277Z" fill="#D9D9D9"/>
<path d="M46.8393 64.2366L48.8238 70.2398H55.2459L50.0503 73.95L52.0349 79.9533L46.8393 76.2431L41.6437 79.9533L43.6282 73.95L38.4326 70.2398H44.8547L46.8393 64.2366Z" fill="#D9D9D9"/>
<defs>
<filter id="filter0_f_88_159" x="1.55457" y="81.1992" width="204.741" height="66.239" filterUnits="userSpaceOnUse" color-interpolation-filters="sRGB">
<feFlood flood-opacity="0" result="BackgroundImageFix"/>
<feBlend mode="normal" in="SourceGraphic" in2="BackgroundImageFix" result="shape"/>
<feGaussianBlur stdDeviation="2" result="effect1_foregroundBlur_88_159"/>
</filter>
<filter id="filter1_f_88_159" x="148.321" y="0" width="58.6788" height="68.2366" filterUnits="userSpaceOnUse" color-interpolation-filters="sRGB">
<feFlood flood-opacity="0" result="BackgroundImageFix"/>
<feBlend mode="normal" in="SourceGraphic" in2="BackgroundImageFix" result="shape"/>
<feGaussianBlur stdDeviation="2" result="effect1_foregroundBlur_88_159"/>
</filter>
<filter id="filter2_f_88_159" x="131.076" y="52.1277" width="24.8134" height="23.7167" filterUnits="userSpaceOnUse" color-interpolation-filters="sRGB">
<feFlood flood-opacity="0" result="BackgroundImageFix"/>
<feBlend mode="normal" in="SourceGraphic" in2="BackgroundImageFix" result="shape"/>
<feGaussianBlur stdDeviation="2" result="effect1_foregroundBlur_88_159"/>
</filter>
<filter id="filter3_f_88_159" x="34.4326" y="60.2366" width="24.8134" height="23.7167" filterUnits="userSpaceOnUse" color-interpolation-filters="sRGB">
<feFlood flood-opacity="0" result="BackgroundImageFix"/>
<feBlend mode="normal" in="SourceGraphic" in2="BackgroundImageFix" result="shape"/>
<feGaussianBlur stdDeviation="2" result="effect1_foregroundBlur_88_159"/>
</filter>
<filter id="filter4_f_88_159" x="98.1042" y="11.5839" width="25.9342" height="24.7645" filterUnits="userSpaceOnUse" color-interpolation-filters="sRGB">
<feFlood flood-opacity="0" result="BackgroundImageFix"/>
<feBlend mode="normal" in="SourceGraphic" in2="BackgroundImageFix" result="shape"/>
<feGaussianBlur stdDeviation="2" result="effect1_foregroundBlur_88_159"/>
</filter>
</defs>
</svg>
