<svg width="501" height="501" viewBox="0 0 501 501" fill="none" xmlns="http://www.w3.org/2000/svg">
<g filter="url(#filter0_f_81_157)">
<path d="M226.174 318.244L226.2 316.19L226.226 312.368C226.243 311.813 226.252 311.241 226.252 310.652C226.252 310.063 226.252 309.456 226.252 308.832C226.252 308.208 226.252 307.653 226.252 307.168C226.252 306.683 226.269 306.137 226.304 305.53V305.426C226.321 305.253 226.33 305.079 226.33 304.906C226.347 304.715 226.356 304.525 226.356 304.334C226.373 304.022 226.469 303.684 226.642 303.32C226.763 303.077 226.945 302.869 227.188 302.696C227.465 302.557 227.734 302.488 227.994 302.488C228.133 302.488 228.254 302.497 228.358 302.514C228.479 302.514 228.592 302.523 228.696 302.54C228.921 302.575 229.121 302.679 229.294 302.852C229.398 302.939 229.493 303.077 229.58 303.268C229.615 303.372 229.641 303.476 229.658 303.58C229.693 303.667 229.719 303.762 229.736 303.866C229.753 303.987 229.762 304.1 229.762 304.204C229.779 304.308 229.788 304.412 229.788 304.516C229.788 304.637 229.779 304.75 229.762 304.854C229.762 304.941 229.762 305.036 229.762 305.14V305.582L229.606 319.076V319.336C229.606 319.388 229.597 319.457 229.58 319.544C229.58 319.613 229.571 319.7 229.554 319.804C229.519 319.891 229.485 319.986 229.45 320.09C229.433 320.177 229.407 320.272 229.372 320.376C229.32 320.463 229.259 320.549 229.19 320.636C229.138 320.705 229.069 320.775 228.982 320.844C228.843 320.983 228.618 321.078 228.306 321.13C227.838 321.234 227.396 321.191 226.98 321C226.772 320.861 226.625 320.688 226.538 320.48C226.486 320.428 226.46 320.376 226.46 320.324C226.443 320.289 226.425 320.263 226.408 320.246C226.391 320.229 226.373 320.203 226.356 320.168C226.321 320.081 226.295 319.995 226.278 319.908C226.261 319.804 226.252 319.7 226.252 319.596C226.235 319.509 226.217 319.423 226.2 319.336C226.2 319.249 226.191 319.163 226.174 319.076C226.157 318.937 226.157 318.79 226.174 318.634V318.244ZM251.999 319.024C251.982 319.319 251.938 319.631 251.869 319.96C251.817 320.289 251.652 320.558 251.375 320.766C251.167 320.939 250.933 321.043 250.673 321.078C250.413 321.113 250.153 321.095 249.893 321.026C249.65 320.974 249.416 320.887 249.191 320.766C248.966 320.627 248.784 320.463 248.645 320.272C248.056 319.544 247.51 318.799 247.007 318.036C246.522 317.256 246.028 316.476 245.525 315.696L243.341 312.394C243.046 311.926 242.734 311.406 242.405 310.834C242.076 310.245 241.738 309.699 241.391 309.196L241.313 319.128V319.362C241.313 319.639 241.261 319.917 241.157 320.194C241.07 320.454 240.914 320.679 240.689 320.87C240.516 321.009 240.29 321.104 240.013 321.156C239.58 321.243 239.216 321.217 238.921 321.078C238.644 320.939 238.418 320.749 238.245 320.506C238.089 320.263 237.976 319.986 237.907 319.674C237.855 319.345 237.846 319.024 237.881 318.712V318.27L237.933 316.242L237.959 312.472C237.976 311.917 237.985 311.354 237.985 310.782C237.985 310.193 237.985 309.595 237.985 308.988C237.968 308.243 237.968 307.454 237.985 306.622C238.02 305.79 238.054 305.01 238.089 304.282C238.124 303.883 238.219 303.545 238.375 303.268C238.444 303.025 238.626 302.817 238.921 302.644C239.112 302.523 239.354 302.445 239.649 302.41C239.961 302.375 240.23 302.384 240.455 302.436C240.542 302.471 240.628 302.514 240.715 302.566C240.802 302.601 240.888 302.644 240.975 302.696C241.062 302.765 241.14 302.835 241.209 302.904C241.296 302.973 241.374 303.051 241.443 303.138C241.53 303.225 241.608 303.32 241.677 303.424C241.746 303.511 241.816 303.597 241.885 303.684C241.937 303.788 241.989 303.883 242.041 303.97C242.093 304.057 242.154 304.143 242.223 304.23L242.509 304.646L248.515 314.11V312.394C248.515 311.839 248.506 311.276 248.489 310.704C248.489 310.115 248.48 309.508 248.463 308.884C248.463 308.156 248.463 307.376 248.463 306.544C248.48 305.712 248.506 304.932 248.541 304.204C248.541 303.909 248.628 303.571 248.801 303.19C248.888 302.965 249.035 302.783 249.243 302.644C249.451 302.505 249.685 302.41 249.945 302.358C250.205 302.306 250.465 302.306 250.725 302.358C250.985 302.41 251.21 302.514 251.401 302.67C251.453 302.722 251.505 302.783 251.557 302.852C251.609 302.921 251.652 302.999 251.687 303.086C251.774 303.311 251.826 303.511 251.843 303.684C251.895 303.927 251.921 304.143 251.921 304.334C251.921 306.501 251.921 308.711 251.921 310.964C251.938 313.217 251.956 315.427 251.973 317.594C251.973 317.837 251.982 318.079 251.999 318.322C252.016 318.547 252.016 318.781 251.999 319.024ZM273.449 319.024C273.432 319.319 273.388 319.631 273.319 319.96C273.267 320.289 273.102 320.558 272.825 320.766C272.617 320.939 272.383 321.043 272.123 321.078C271.863 321.113 271.603 321.095 271.343 321.026C271.1 320.974 270.866 320.887 270.641 320.766C270.416 320.627 270.234 320.463 270.095 320.272C269.506 319.544 268.96 318.799 268.457 318.036C267.972 317.256 267.478 316.476 266.975 315.696L264.791 312.394C264.496 311.926 264.184 311.406 263.855 310.834C263.526 310.245 263.188 309.699 262.841 309.196L262.763 319.128V319.362C262.763 319.639 262.711 319.917 262.607 320.194C262.52 320.454 262.364 320.679 262.139 320.87C261.966 321.009 261.74 321.104 261.463 321.156C261.03 321.243 260.666 321.217 260.371 321.078C260.094 320.939 259.868 320.749 259.695 320.506C259.539 320.263 259.426 319.986 259.357 319.674C259.305 319.345 259.296 319.024 259.331 318.712V318.27L259.383 316.242L259.409 312.472C259.426 311.917 259.435 311.354 259.435 310.782C259.435 310.193 259.435 309.595 259.435 308.988C259.418 308.243 259.418 307.454 259.435 306.622C259.47 305.79 259.504 305.01 259.539 304.282C259.574 303.883 259.669 303.545 259.825 303.268C259.894 303.025 260.076 302.817 260.371 302.644C260.562 302.523 260.804 302.445 261.099 302.41C261.411 302.375 261.68 302.384 261.905 302.436C261.992 302.471 262.078 302.514 262.165 302.566C262.252 302.601 262.338 302.644 262.425 302.696C262.512 302.765 262.59 302.835 262.659 302.904C262.746 302.973 262.824 303.051 262.893 303.138C262.98 303.225 263.058 303.32 263.127 303.424C263.196 303.511 263.266 303.597 263.335 303.684C263.387 303.788 263.439 303.883 263.491 303.97C263.543 304.057 263.604 304.143 263.673 304.23L263.959 304.646L269.965 314.11V312.394C269.965 311.839 269.956 311.276 269.939 310.704C269.939 310.115 269.93 309.508 269.913 308.884C269.913 308.156 269.913 307.376 269.913 306.544C269.93 305.712 269.956 304.932 269.991 304.204C269.991 303.909 270.078 303.571 270.251 303.19C270.338 302.965 270.485 302.783 270.693 302.644C270.901 302.505 271.135 302.41 271.395 302.358C271.655 302.306 271.915 302.306 272.175 302.358C272.435 302.41 272.66 302.514 272.851 302.67C272.903 302.722 272.955 302.783 273.007 302.852C273.059 302.921 273.102 302.999 273.137 303.086C273.224 303.311 273.276 303.511 273.293 303.684C273.345 303.927 273.371 304.143 273.371 304.334C273.371 306.501 273.371 308.711 273.371 310.964C273.388 313.217 273.406 315.427 273.423 317.594C273.423 317.837 273.432 318.079 273.449 318.322C273.466 318.547 273.466 318.781 273.449 319.024Z" fill="black"/>
</g>
<path d="M228.068 317.35L228.093 315.375L228.118 311.7C228.135 311.167 228.143 310.617 228.143 310.05C228.143 309.483 228.143 308.9 228.143 308.3C228.143 307.7 228.143 307.167 228.143 306.7C228.143 306.233 228.16 305.708 228.193 305.125V305.025C228.21 304.858 228.218 304.692 228.218 304.525C228.235 304.342 228.243 304.158 228.243 303.975C228.26 303.675 228.351 303.35 228.518 303C228.635 302.767 228.81 302.567 229.043 302.4C229.31 302.267 229.568 302.2 229.818 302.2C229.951 302.2 230.068 302.208 230.168 302.225C230.285 302.225 230.393 302.233 230.493 302.25C230.71 302.283 230.901 302.383 231.068 302.55C231.168 302.633 231.26 302.767 231.343 302.95C231.376 303.05 231.401 303.15 231.418 303.25C231.451 303.333 231.476 303.425 231.493 303.525C231.51 303.642 231.518 303.75 231.518 303.85C231.535 303.95 231.543 304.05 231.543 304.15C231.543 304.267 231.535 304.375 231.518 304.475C231.518 304.558 231.518 304.65 231.518 304.75V305.175L231.368 318.15V318.4C231.368 318.45 231.36 318.517 231.343 318.6C231.343 318.667 231.335 318.75 231.318 318.85C231.285 318.933 231.251 319.025 231.218 319.125C231.201 319.208 231.176 319.3 231.143 319.4C231.093 319.483 231.035 319.567 230.968 319.65C230.918 319.717 230.851 319.783 230.768 319.85C230.635 319.983 230.418 320.075 230.118 320.125C229.668 320.225 229.243 320.183 228.843 320C228.643 319.867 228.501 319.7 228.418 319.5C228.368 319.45 228.343 319.4 228.343 319.35C228.326 319.317 228.31 319.292 228.293 319.275C228.276 319.258 228.26 319.233 228.243 319.2C228.21 319.117 228.185 319.033 228.168 318.95C228.151 318.85 228.143 318.75 228.143 318.65C228.126 318.567 228.11 318.483 228.093 318.4C228.093 318.317 228.085 318.233 228.068 318.15C228.051 318.017 228.051 317.875 228.068 317.725V317.35ZM252.9 318.1C252.883 318.383 252.842 318.683 252.775 319C252.725 319.317 252.567 319.575 252.3 319.775C252.1 319.942 251.875 320.042 251.625 320.075C251.375 320.108 251.125 320.092 250.875 320.025C250.642 319.975 250.417 319.892 250.2 319.775C249.983 319.642 249.808 319.483 249.675 319.3C249.108 318.6 248.583 317.883 248.1 317.15C247.633 316.4 247.158 315.65 246.675 314.9L244.575 311.725C244.292 311.275 243.992 310.775 243.675 310.225C243.358 309.658 243.033 309.133 242.7 308.65L242.625 318.2V318.425C242.625 318.692 242.575 318.958 242.475 319.225C242.392 319.475 242.242 319.692 242.025 319.875C241.858 320.008 241.642 320.1 241.375 320.15C240.958 320.233 240.608 320.208 240.325 320.075C240.058 319.942 239.842 319.758 239.675 319.525C239.525 319.292 239.417 319.025 239.35 318.725C239.3 318.408 239.292 318.1 239.325 317.8V317.375L239.375 315.425L239.4 311.8C239.417 311.267 239.425 310.725 239.425 310.175C239.425 309.608 239.425 309.033 239.425 308.45C239.408 307.733 239.408 306.975 239.425 306.175C239.458 305.375 239.492 304.625 239.525 303.925C239.558 303.542 239.65 303.217 239.8 302.95C239.867 302.717 240.042 302.517 240.325 302.35C240.508 302.233 240.742 302.158 241.025 302.125C241.325 302.092 241.583 302.1 241.8 302.15C241.883 302.183 241.967 302.225 242.05 302.275C242.133 302.308 242.217 302.35 242.3 302.4C242.383 302.467 242.458 302.533 242.525 302.6C242.608 302.667 242.683 302.742 242.75 302.825C242.833 302.908 242.908 303 242.975 303.1C243.042 303.183 243.108 303.267 243.175 303.35C243.225 303.45 243.275 303.542 243.325 303.625C243.375 303.708 243.433 303.792 243.5 303.875L243.775 304.275L249.55 313.375V311.725C249.55 311.192 249.542 310.65 249.525 310.1C249.525 309.533 249.517 308.95 249.5 308.35C249.5 307.65 249.5 306.9 249.5 306.1C249.517 305.3 249.542 304.55 249.575 303.85C249.575 303.567 249.658 303.242 249.825 302.875C249.908 302.658 250.05 302.483 250.25 302.35C250.45 302.217 250.675 302.125 250.925 302.075C251.175 302.025 251.425 302.025 251.675 302.075C251.925 302.125 252.142 302.225 252.325 302.375C252.375 302.425 252.425 302.483 252.475 302.55C252.525 302.617 252.567 302.692 252.6 302.775C252.683 302.992 252.733 303.183 252.75 303.35C252.8 303.583 252.825 303.792 252.825 303.975C252.825 306.058 252.825 308.183 252.825 310.35C252.842 312.517 252.858 314.642 252.875 316.725C252.875 316.958 252.883 317.192 252.9 317.425C252.917 317.642 252.917 317.867 252.9 318.1ZM273.525 318.1C273.508 318.383 273.467 318.683 273.4 319C273.35 319.317 273.192 319.575 272.925 319.775C272.725 319.942 272.5 320.042 272.25 320.075C272 320.108 271.75 320.092 271.5 320.025C271.267 319.975 271.042 319.892 270.825 319.775C270.608 319.642 270.433 319.483 270.3 319.3C269.733 318.6 269.208 317.883 268.725 317.15C268.258 316.4 267.783 315.65 267.3 314.9L265.2 311.725C264.917 311.275 264.617 310.775 264.3 310.225C263.983 309.658 263.658 309.133 263.325 308.65L263.25 318.2V318.425C263.25 318.692 263.2 318.958 263.1 319.225C263.017 319.475 262.867 319.692 262.65 319.875C262.483 320.008 262.267 320.1 262 320.15C261.583 320.233 261.233 320.208 260.95 320.075C260.683 319.942 260.467 319.758 260.3 319.525C260.15 319.292 260.042 319.025 259.975 318.725C259.925 318.408 259.917 318.1 259.95 317.8V317.375L260 315.425L260.025 311.8C260.042 311.267 260.05 310.725 260.05 310.175C260.05 309.608 260.05 309.033 260.05 308.45C260.033 307.733 260.033 306.975 260.05 306.175C260.083 305.375 260.117 304.625 260.15 303.925C260.183 303.542 260.275 303.217 260.425 302.95C260.492 302.717 260.667 302.517 260.95 302.35C261.133 302.233 261.367 302.158 261.65 302.125C261.95 302.092 262.208 302.1 262.425 302.15C262.508 302.183 262.592 302.225 262.675 302.275C262.758 302.308 262.842 302.35 262.925 302.4C263.008 302.467 263.083 302.533 263.15 302.6C263.233 302.667 263.308 302.742 263.375 302.825C263.458 302.908 263.533 303 263.6 303.1C263.667 303.183 263.733 303.267 263.8 303.35C263.85 303.45 263.9 303.542 263.95 303.625C264 303.708 264.058 303.792 264.125 303.875L264.4 304.275L270.175 313.375V311.725C270.175 311.192 270.167 310.65 270.15 310.1C270.15 309.533 270.142 308.95 270.125 308.35C270.125 307.65 270.125 306.9 270.125 306.1C270.142 305.3 270.167 304.55 270.2 303.85C270.2 303.567 270.283 303.242 270.45 302.875C270.533 302.658 270.675 302.483 270.875 302.35C271.075 302.217 271.3 302.125 271.55 302.075C271.8 302.025 272.05 302.025 272.3 302.075C272.55 302.125 272.767 302.225 272.95 302.375C273 302.425 273.05 302.483 273.1 302.55C273.15 302.617 273.192 302.692 273.225 302.775C273.308 302.992 273.358 303.183 273.375 303.35C273.425 303.583 273.45 303.792 273.45 303.975C273.45 306.058 273.45 308.183 273.45 310.35C273.467 312.517 273.483 314.642 273.5 316.725C273.5 316.958 273.508 317.192 273.525 317.425C273.542 317.642 273.542 317.867 273.525 318.1Z" fill="#E3BC3F"/>
<g filter="url(#filter1_f_81_157)">
<path d="M135.602 220.629C135.602 218.818 136.249 217.299 137.542 216.07C138.9 214.841 140.452 214.227 142.198 214.227C144.074 214.227 145.626 214.841 146.854 216.07C148.148 217.299 148.794 218.818 148.794 220.629C148.794 222.375 148.148 223.895 146.854 225.188C145.626 226.417 144.074 227.031 142.198 227.031C140.452 227.031 138.9 226.417 137.542 225.188C136.249 223.895 135.602 222.375 135.602 220.629ZM137.057 238.38H147.339V283H137.057V238.38ZM158.361 260.69C158.361 256.099 159.396 252.057 161.465 248.565C163.599 245.073 166.477 242.357 170.098 240.417C173.719 238.412 177.826 237.41 182.417 237.41C187.008 237.41 191.082 238.412 194.639 240.417C198.26 242.357 201.138 245.073 203.272 248.565C205.406 252.057 206.473 256.099 206.473 260.69C206.473 265.217 205.406 269.258 203.272 272.815C201.138 276.307 198.26 279.055 194.639 281.06C191.082 283 187.008 283.97 182.417 283.97C177.826 283.97 173.719 283 170.098 281.06C166.477 279.055 163.599 276.307 161.465 272.815C159.396 269.258 158.361 265.217 158.361 260.69ZM169.128 260.69C169.128 263.471 169.71 265.928 170.874 268.062C172.038 270.131 173.622 271.78 175.627 273.009C177.632 274.173 179.895 274.755 182.417 274.755C184.874 274.755 187.105 274.173 189.11 273.009C191.179 271.78 192.796 270.131 193.96 268.062C195.124 265.928 195.706 263.471 195.706 260.69C195.706 257.909 195.124 255.452 193.96 253.318C192.796 251.184 191.179 249.535 189.11 248.371C187.105 247.207 184.874 246.625 182.417 246.625C179.895 246.625 177.632 247.207 175.627 248.371C173.622 249.535 172.038 251.184 170.874 253.318C169.71 255.452 169.128 257.909 169.128 260.69ZM280.239 254.676V283H269.763V255.84C269.763 252.477 269.149 249.988 267.92 248.371C266.756 246.69 264.881 245.849 262.294 245.849C260.548 245.849 258.996 246.237 257.638 247.013C256.345 247.789 255.31 248.921 254.534 250.408C253.823 251.895 253.467 253.706 253.467 255.84V283H242.991V255.84C242.991 252.477 242.377 249.988 241.148 248.371C239.984 246.69 238.109 245.849 235.522 245.849C233.712 245.849 232.127 246.237 230.769 247.013C229.476 247.789 228.474 248.921 227.762 250.408C227.051 251.895 226.695 253.706 226.695 255.84V283H216.413V238.38H226.695V244.879C227.989 242.422 229.67 240.579 231.739 239.35C233.873 238.057 236.363 237.41 239.208 237.41C242.506 237.41 245.222 238.089 247.356 239.447C249.555 240.805 251.139 242.777 252.109 245.364C253.661 242.777 255.601 240.805 257.929 239.447C260.322 238.089 263.038 237.41 266.077 237.41C269.246 237.41 271.865 238.089 273.934 239.447C276.068 240.74 277.653 242.68 278.687 245.267C279.722 247.854 280.239 250.99 280.239 254.676ZM300.211 269.129C300.211 270.616 300.567 271.91 301.278 273.009C301.99 274.044 302.96 274.82 304.188 275.337C305.482 275.854 306.937 276.113 308.553 276.113C310.623 276.113 312.498 275.693 314.179 274.852C315.925 274.011 317.316 272.783 318.35 271.166C319.45 269.485 319.999 267.545 319.999 265.346L321.551 271.166C321.551 274.011 320.711 276.404 319.029 278.344C317.413 280.219 315.343 281.642 312.821 282.612C310.364 283.517 307.842 283.97 305.255 283.97C302.475 283.97 299.888 283.42 297.495 282.321C295.103 281.222 293.195 279.605 291.772 277.471C290.35 275.337 289.638 272.75 289.638 269.711C289.638 265.378 291.158 261.951 294.197 259.429C297.237 256.842 301.537 255.549 307.098 255.549C310.073 255.549 312.627 255.872 314.761 256.519C316.96 257.166 318.771 257.942 320.193 258.847C321.616 259.688 322.618 260.464 323.2 261.175V266.51C321.196 265.087 319.062 264.053 316.798 263.406C314.535 262.759 312.142 262.436 309.62 262.436C307.422 262.436 305.643 262.727 304.285 263.309C302.927 263.826 301.893 264.57 301.181 265.54C300.535 266.51 300.211 267.706 300.211 269.129ZM296.913 250.02L292.645 242.648C294.65 241.419 297.237 240.223 300.405 239.059C303.639 237.895 307.325 237.313 311.463 237.313C315.149 237.313 318.383 237.863 321.163 238.962C324.009 240.061 326.24 241.646 327.856 243.715C329.473 245.72 330.281 248.209 330.281 251.184V283H319.999V253.221C319.999 251.798 319.741 250.634 319.223 249.729C318.771 248.824 318.124 248.08 317.283 247.498C316.443 246.916 315.44 246.496 314.276 246.237C313.112 245.978 311.851 245.849 310.493 245.849C308.424 245.849 306.452 246.108 304.576 246.625C302.766 247.078 301.181 247.66 299.823 248.371C298.53 249.018 297.56 249.567 296.913 250.02ZM352.873 238.38V283H342.494V238.38H352.873ZM366.162 249.535C365.192 248.759 364.287 248.177 363.446 247.789C362.606 247.401 361.539 247.207 360.245 247.207C358.499 247.207 357.077 247.66 355.977 248.565C354.878 249.47 354.07 250.731 353.552 252.348C353.1 253.9 352.873 255.743 352.873 257.877L349.381 255.84C349.381 252.283 350.028 249.147 351.321 246.431C352.679 243.65 354.393 241.452 356.462 239.835C358.596 238.218 360.795 237.41 363.058 237.41C364.675 237.41 366.195 237.669 367.617 238.186C369.04 238.639 370.236 239.479 371.206 240.708L366.162 249.535Z" fill="black"/>
</g>
<path d="M138.287 218.272C138.287 216.48 138.927 214.976 140.207 213.76C141.551 212.544 143.087 211.936 144.815 211.936C146.671 211.936 148.207 212.544 149.423 213.76C150.703 214.976 151.343 216.48 151.343 218.272C151.343 220 150.703 221.504 149.423 222.784C148.207 224 146.671 224.608 144.815 224.608C143.087 224.608 141.551 224 140.207 222.784C138.927 221.504 138.287 220 138.287 218.272ZM139.727 235.84H149.903V280H139.727V235.84ZM160.811 257.92C160.811 253.376 161.835 249.376 163.883 245.92C165.995 242.464 168.843 239.776 172.427 237.856C176.011 235.872 180.075 234.88 184.619 234.88C189.163 234.88 193.195 235.872 196.715 237.856C200.299 239.776 203.147 242.464 205.259 245.92C207.371 249.376 208.427 253.376 208.427 257.92C208.427 262.4 207.371 266.4 205.259 269.92C203.147 273.376 200.299 276.096 196.715 278.08C193.195 280 189.163 280.96 184.619 280.96C180.075 280.96 176.011 280 172.427 278.08C168.843 276.096 165.995 273.376 163.883 269.92C161.835 266.4 160.811 262.4 160.811 257.92ZM171.467 257.92C171.467 260.672 172.043 263.104 173.195 265.216C174.347 267.264 175.915 268.896 177.899 270.112C179.883 271.264 182.123 271.84 184.619 271.84C187.051 271.84 189.259 271.264 191.243 270.112C193.291 268.896 194.891 267.264 196.043 265.216C197.195 263.104 197.771 260.672 197.771 257.92C197.771 255.168 197.195 252.736 196.043 250.624C194.891 248.512 193.291 246.88 191.243 245.728C189.259 244.576 187.051 244 184.619 244C182.123 244 179.883 244.576 177.899 245.728C175.915 246.88 174.347 248.512 173.195 250.624C172.043 252.736 171.467 255.168 171.467 257.92ZM281.433 251.968V280H271.065V253.12C271.065 249.792 270.457 247.328 269.241 245.728C268.089 244.064 266.233 243.232 263.673 243.232C261.945 243.232 260.409 243.616 259.065 244.384C257.785 245.152 256.761 246.272 255.993 247.744C255.289 249.216 254.937 251.008 254.937 253.12V280H244.569V253.12C244.569 249.792 243.961 247.328 242.745 245.728C241.593 244.064 239.737 243.232 237.177 243.232C235.385 243.232 233.817 243.616 232.473 244.384C231.193 245.152 230.201 246.272 229.497 247.744C228.793 249.216 228.441 251.008 228.441 253.12V280H218.265V235.84H228.441V242.272C229.721 239.84 231.385 238.016 233.433 236.8C235.545 235.52 238.009 234.88 240.825 234.88C244.089 234.88 246.777 235.552 248.889 236.896C251.065 238.24 252.633 240.192 253.593 242.752C255.129 240.192 257.049 238.24 259.353 236.896C261.721 235.552 264.409 234.88 267.417 234.88C270.553 234.88 273.145 235.552 275.193 236.896C277.305 238.176 278.873 240.096 279.897 242.656C280.921 245.216 281.433 248.32 281.433 251.968ZM301.199 266.272C301.199 267.744 301.551 269.024 302.255 270.112C302.959 271.136 303.919 271.904 305.135 272.416C306.415 272.928 307.855 273.184 309.455 273.184C311.503 273.184 313.359 272.768 315.023 271.936C316.751 271.104 318.127 269.888 319.151 268.288C320.239 266.624 320.783 264.704 320.783 262.528L322.319 268.288C322.319 271.104 321.487 273.472 319.823 275.392C318.223 277.248 316.175 278.656 313.679 279.616C311.247 280.512 308.751 280.96 306.191 280.96C303.439 280.96 300.879 280.416 298.511 279.328C296.143 278.24 294.255 276.64 292.847 274.528C291.439 272.416 290.735 269.856 290.735 266.848C290.735 262.56 292.239 259.168 295.247 256.672C298.255 254.112 302.511 252.832 308.015 252.832C310.959 252.832 313.487 253.152 315.599 253.792C317.775 254.432 319.567 255.2 320.975 256.096C322.383 256.928 323.375 257.696 323.951 258.4V263.68C321.967 262.272 319.855 261.248 317.615 260.608C315.375 259.968 313.007 259.648 310.511 259.648C308.335 259.648 306.575 259.936 305.231 260.512C303.887 261.024 302.863 261.76 302.159 262.72C301.519 263.68 301.199 264.864 301.199 266.272ZM297.935 247.36L293.711 240.064C295.695 238.848 298.255 237.664 301.391 236.512C304.591 235.36 308.239 234.784 312.335 234.784C315.983 234.784 319.183 235.328 321.935 236.416C324.751 237.504 326.959 239.072 328.559 241.12C330.159 243.104 330.959 245.568 330.959 248.512V280H320.783V250.528C320.783 249.12 320.527 247.968 320.015 247.072C319.567 246.176 318.927 245.44 318.095 244.864C317.263 244.288 316.271 243.872 315.119 243.616C313.967 243.36 312.719 243.232 311.375 243.232C309.327 243.232 307.375 243.488 305.519 244C303.727 244.448 302.159 245.024 300.815 245.728C299.535 246.368 298.575 246.912 297.935 247.36ZM353.318 235.84V280H343.046V235.84H353.318ZM366.47 246.88C365.51 246.112 364.614 245.536 363.782 245.152C362.95 244.768 361.894 244.576 360.614 244.576C358.886 244.576 357.478 245.024 356.39 245.92C355.302 246.816 354.502 248.064 353.99 249.664C353.542 251.2 353.318 253.024 353.318 255.136L349.862 253.12C349.862 249.6 350.502 246.496 351.782 243.808C353.126 241.056 354.822 238.88 356.87 237.28C358.982 235.68 361.158 234.88 363.398 234.88C364.998 234.88 366.502 235.136 367.91 235.648C369.318 236.096 370.502 236.928 371.462 238.144L366.47 246.88Z" fill="#D9D9D9"/>
<g filter="url(#filter2_f_81_157)">
<path fill-rule="evenodd" clip-rule="evenodd" d="M375 196.402C373.908 196.536 372.794 196.606 371.665 196.606C356.995 196.606 345.104 184.919 345.104 170.504C345.104 162.188 349.061 154.78 355.226 150C342.131 151.612 332 162.592 332 175.898C332 190.314 343.892 202 358.561 202C364.768 202 370.478 199.908 375 196.402Z" fill="#E3BC3F"/>
</g>
<path fill-rule="evenodd" clip-rule="evenodd" d="M374 196.509C372.933 196.641 371.846 196.709 370.742 196.709C356.414 196.709 344.799 185.248 344.799 171.109C344.799 162.953 348.664 155.688 354.686 151C341.895 152.581 332 163.35 332 176.4C332 190.539 343.615 202 357.944 202C364.006 202 369.583 199.948 374 196.509Z" fill="#D9D9D9"/>
<g filter="url(#filter3_f_81_157)">
<path d="M324.5 195L326.184 200.182H331.633L327.225 203.385L328.908 208.568L324.5 205.365L320.092 208.568L321.775 203.385L317.367 200.182H322.816L324.5 195Z" fill="white" fill-opacity="0.75"/>
<path d="M324.5 195L326.184 200.182H331.633L327.225 203.385L328.908 208.568L324.5 205.365L320.092 208.568L321.775 203.385L317.367 200.182H322.816L324.5 195Z" fill="white" fill-opacity="0.75"/>
</g>
<g filter="url(#filter4_f_81_157)">
<path d="M242.5 202L244.184 207.182H249.633L245.225 210.385L246.908 215.568L242.5 212.365L238.092 215.568L239.775 210.385L235.367 207.182H240.816L242.5 202Z" fill="white" fill-opacity="0.75"/>
<path d="M242.5 202L244.184 207.182H249.633L245.225 210.385L246.908 215.568L242.5 212.365L238.092 215.568L239.775 210.385L235.367 207.182H240.816L242.5 202Z" fill="white" fill-opacity="0.75"/>
</g>
<g filter="url(#filter5_f_81_157)">
<path d="M297 160L298.796 165.528H304.608L299.906 168.944L301.702 174.472L297 171.056L292.298 174.472L294.094 168.944L289.392 165.528H295.204L297 160Z" fill="#E6A000"/>
</g>
<path d="M297.5 161L299.184 166.182H304.633L300.225 169.385L301.908 174.568L297.5 171.365L293.092 174.568L294.775 169.385L290.367 166.182H295.816L297.5 161Z" fill="#E3BC3F"/>
<path d="M324.5 195L326.184 200.182H331.633L327.225 203.385L328.908 208.568L324.5 205.365L320.092 208.568L321.775 203.385L317.367 200.182H322.816L324.5 195Z" fill="#D9D9D9"/>
<path d="M242.5 202L244.184 207.182H249.633L245.225 210.385L246.908 215.568L242.5 212.365L238.092 215.568L239.775 210.385L235.367 207.182H240.816L242.5 202Z" fill="#D9D9D9"/>
<defs>
<filter id="filter0_f_81_157" x="222.148" y="298.28" width="55.327" height="27.006" filterUnits="userSpaceOnUse" color-interpolation-filters="sRGB">
<feFlood flood-opacity="0" result="BackgroundImageFix"/>
<feBlend mode="normal" in="SourceGraphic" in2="BackgroundImageFix" result="shape"/>
<feGaussianBlur stdDeviation="2" result="effect1_foregroundBlur_81_157"/>
</filter>
<filter id="filter1_f_81_157" x="131.602" y="210.227" width="243.604" height="77.7429" filterUnits="userSpaceOnUse" color-interpolation-filters="sRGB">
<feFlood flood-opacity="0" result="BackgroundImageFix"/>
<feBlend mode="normal" in="SourceGraphic" in2="BackgroundImageFix" result="shape"/>
<feGaussianBlur stdDeviation="2" result="effect1_foregroundBlur_81_157"/>
</filter>
<filter id="filter2_f_81_157" x="328" y="146" width="51" height="60" filterUnits="userSpaceOnUse" color-interpolation-filters="sRGB">
<feFlood flood-opacity="0" result="BackgroundImageFix"/>
<feBlend mode="normal" in="SourceGraphic" in2="BackgroundImageFix" result="shape"/>
<feGaussianBlur stdDeviation="2" result="effect1_foregroundBlur_81_157"/>
</filter>
<filter id="filter3_f_81_157" x="313.367" y="191" width="22.2659" height="21.5676" filterUnits="userSpaceOnUse" color-interpolation-filters="sRGB">
<feFlood flood-opacity="0" result="BackgroundImageFix"/>
<feBlend mode="normal" in="SourceGraphic" in2="BackgroundImageFix" result="shape"/>
<feGaussianBlur stdDeviation="2" result="effect1_foregroundBlur_81_157"/>
</filter>
<filter id="filter4_f_81_157" x="231.367" y="198" width="22.2659" height="21.5676" filterUnits="userSpaceOnUse" color-interpolation-filters="sRGB">
<feFlood flood-opacity="0" result="BackgroundImageFix"/>
<feBlend mode="normal" in="SourceGraphic" in2="BackgroundImageFix" result="shape"/>
<feGaussianBlur stdDeviation="2" result="effect1_foregroundBlur_81_157"/>
</filter>
<filter id="filter5_f_81_157" x="285.392" y="156" width="23.2168" height="22.4722" filterUnits="userSpaceOnUse" color-interpolation-filters="sRGB">
<feFlood flood-opacity="0" result="BackgroundImageFix"/>
<feBlend mode="normal" in="SourceGraphic" in2="BackgroundImageFix" result="shape"/>
<feGaussianBlur stdDeviation="2" result="effect1_foregroundBlur_81_157"/>
</filter>
</defs>
</svg>
